<mxfile host="app.diagrams.net" agent="Mozilla/5.0 (Macintosh; Intel Mac OS X 10_15_7) AppleWebKit/537.36 (KHTML, like Gecko) Chrome/124.0.0.0 Safari/537.36" version="26.0.5">
  <diagram name="Page-1" id="YLKZO_a49J6h5-vwQdo8">
    <mxGraphModel dx="1130" dy="1057" grid="1" gridSize="10" guides="1" tooltips="1" connect="1" arrows="1" fold="1" page="1" pageScale="1" pageWidth="827" pageHeight="1169" math="0" shadow="0">
      <root>
        <mxCell id="0" />
        <mxCell id="1" parent="0" />
        <mxCell id="M5v2R0khb8lXUGfrtRvx-3" value="" style="rounded=0;whiteSpace=wrap;html=1;" parent="1" vertex="1">
          <mxGeometry x="340" y="20" width="120" height="60" as="geometry" />
        </mxCell>
        <mxCell id="M5v2R0khb8lXUGfrtRvx-4" value="linkd list" style="text;html=1;align=center;verticalAlign=middle;whiteSpace=wrap;rounded=0;" parent="1" vertex="1">
          <mxGeometry x="370" y="35" width="60" height="30" as="geometry" />
        </mxCell>
        <mxCell id="bNp4epviSqY8jeCRrWVI-1" value="|" style="rounded=1;whiteSpace=wrap;html=1;" parent="1" vertex="1">
          <mxGeometry x="240" y="280" width="120" height="60" as="geometry" />
        </mxCell>
        <mxCell id="bNp4epviSqY8jeCRrWVI-4" value="" style="rounded=1;whiteSpace=wrap;html=1;" parent="1" vertex="1">
          <mxGeometry x="470" y="400" width="120" height="60" as="geometry" />
        </mxCell>
        <mxCell id="bNp4epviSqY8jeCRrWVI-5" value="" style="rounded=1;whiteSpace=wrap;html=1;" parent="1" vertex="1">
          <mxGeometry x="700" y="280" width="120" height="60" as="geometry" />
        </mxCell>
        <mxCell id="bNp4epviSqY8jeCRrWVI-6" value="" style="rounded=1;whiteSpace=wrap;html=1;" parent="1" vertex="1">
          <mxGeometry x="70" y="200" width="90" height="60" as="geometry" />
        </mxCell>
        <mxCell id="bNp4epviSqY8jeCRrWVI-10" value="" style="endArrow=classic;html=1;rounded=0;exitX=0.917;exitY=1;exitDx=0;exitDy=0;exitPerimeter=0;" parent="1" source="bNp4epviSqY8jeCRrWVI-1" edge="1">
          <mxGeometry width="50" height="50" relative="1" as="geometry">
            <mxPoint x="400" y="570" as="sourcePoint" />
            <mxPoint x="460" y="440" as="targetPoint" />
            <Array as="points">
              <mxPoint x="400" y="440" />
            </Array>
          </mxGeometry>
        </mxCell>
        <mxCell id="bNp4epviSqY8jeCRrWVI-11" value="" style="endArrow=classic;html=1;rounded=0;" parent="1" edge="1">
          <mxGeometry width="50" height="50" relative="1" as="geometry">
            <mxPoint x="600" y="440" as="sourcePoint" />
            <mxPoint x="730" y="350" as="targetPoint" />
            <Array as="points">
              <mxPoint x="730" y="440" />
            </Array>
          </mxGeometry>
        </mxCell>
        <mxCell id="bNp4epviSqY8jeCRrWVI-12" value="" style="endArrow=classic;html=1;rounded=0;" parent="1" edge="1">
          <mxGeometry width="50" height="50" relative="1" as="geometry">
            <mxPoint x="110" y="270" as="sourcePoint" />
            <mxPoint x="230" y="320" as="targetPoint" />
            <Array as="points">
              <mxPoint x="110" y="320" />
            </Array>
          </mxGeometry>
        </mxCell>
        <mxCell id="bNp4epviSqY8jeCRrWVI-13" value="head" style="text;html=1;align=center;verticalAlign=middle;whiteSpace=wrap;rounded=0;" parent="1" vertex="1">
          <mxGeometry x="80" y="170" width="60" height="30" as="geometry" />
        </mxCell>
        <mxCell id="bNp4epviSqY8jeCRrWVI-14" value="node" style="text;html=1;align=center;verticalAlign=middle;whiteSpace=wrap;rounded=0;" parent="1" vertex="1">
          <mxGeometry x="270" y="240" width="60" height="30" as="geometry" />
        </mxCell>
        <mxCell id="bNp4epviSqY8jeCRrWVI-15" value="node" style="text;html=1;align=center;verticalAlign=middle;whiteSpace=wrap;rounded=0;" parent="1" vertex="1">
          <mxGeometry x="490" y="370" width="60" height="30" as="geometry" />
        </mxCell>
        <mxCell id="bNp4epviSqY8jeCRrWVI-16" value="node" style="text;html=1;align=center;verticalAlign=middle;whiteSpace=wrap;rounded=0;" parent="1" vertex="1">
          <mxGeometry x="730" y="250" width="60" height="30" as="geometry" />
        </mxCell>
        <mxCell id="bNp4epviSqY8jeCRrWVI-22" value="a" style="text;html=1;align=center;verticalAlign=middle;whiteSpace=wrap;rounded=0;" parent="1" vertex="1">
          <mxGeometry x="240" y="295" width="60" height="30" as="geometry" />
        </mxCell>
        <mxCell id="bNp4epviSqY8jeCRrWVI-23" value="|&lt;div&gt;|&lt;br&gt;|&lt;/div&gt;" style="text;html=1;align=center;verticalAlign=middle;whiteSpace=wrap;rounded=0;" parent="1" vertex="1">
          <mxGeometry x="270" y="295" width="60" height="30" as="geometry" />
        </mxCell>
        <mxCell id="bNp4epviSqY8jeCRrWVI-24" value="&amp;amp;001" style="text;html=1;align=center;verticalAlign=middle;whiteSpace=wrap;rounded=0;" parent="1" vertex="1">
          <mxGeometry x="240" y="340" width="60" height="30" as="geometry" />
        </mxCell>
        <mxCell id="bNp4epviSqY8jeCRrWVI-27" value="&amp;amp;001" style="text;html=1;align=center;verticalAlign=middle;whiteSpace=wrap;rounded=0;" parent="1" vertex="1">
          <mxGeometry x="84" y="215" width="60" height="30" as="geometry" />
        </mxCell>
        <mxCell id="bNp4epviSqY8jeCRrWVI-28" value="&amp;amp;002" style="text;html=1;align=center;verticalAlign=middle;whiteSpace=wrap;rounded=0;" parent="1" vertex="1">
          <mxGeometry x="470" y="460" width="60" height="30" as="geometry" />
        </mxCell>
        <mxCell id="bNp4epviSqY8jeCRrWVI-29" value="|&lt;div&gt;|&lt;/div&gt;&lt;div&gt;|&lt;/div&gt;" style="text;html=1;align=center;verticalAlign=middle;whiteSpace=wrap;rounded=0;" parent="1" vertex="1">
          <mxGeometry x="500" y="415" width="60" height="30" as="geometry" />
        </mxCell>
        <mxCell id="bNp4epviSqY8jeCRrWVI-30" value="&amp;amp;003" style="text;html=1;align=center;verticalAlign=middle;whiteSpace=wrap;rounded=0;" parent="1" vertex="1">
          <mxGeometry x="700" y="330" width="60" height="30" as="geometry" />
        </mxCell>
        <mxCell id="bNp4epviSqY8jeCRrWVI-31" value="&amp;amp;002" style="text;html=1;align=center;verticalAlign=middle;whiteSpace=wrap;rounded=0;" parent="1" vertex="1">
          <mxGeometry x="300" y="290" width="60" height="30" as="geometry" />
        </mxCell>
        <mxCell id="bNp4epviSqY8jeCRrWVI-32" value="&amp;amp;003" style="text;html=1;align=center;verticalAlign=middle;whiteSpace=wrap;rounded=0;" parent="1" vertex="1">
          <mxGeometry x="530" y="415" width="60" height="30" as="geometry" />
        </mxCell>
        <mxCell id="bNp4epviSqY8jeCRrWVI-33" value="|&lt;div&gt;|&lt;/div&gt;&lt;div&gt;|&lt;/div&gt;" style="text;html=1;align=center;verticalAlign=middle;whiteSpace=wrap;rounded=0;" parent="1" vertex="1">
          <mxGeometry x="730" y="295" width="60" height="30" as="geometry" />
        </mxCell>
        <mxCell id="bNp4epviSqY8jeCRrWVI-34" value="NULL" style="text;html=1;align=center;verticalAlign=middle;whiteSpace=wrap;rounded=0;" parent="1" vertex="1">
          <mxGeometry x="760" y="295" width="60" height="30" as="geometry" />
        </mxCell>
        <mxCell id="bNp4epviSqY8jeCRrWVI-35" value="you" style="text;html=1;align=center;verticalAlign=middle;whiteSpace=wrap;rounded=0;" parent="1" vertex="1">
          <mxGeometry x="470" y="415" width="60" height="30" as="geometry" />
        </mxCell>
        <mxCell id="bNp4epviSqY8jeCRrWVI-36" value="abc" style="text;html=1;align=center;verticalAlign=middle;whiteSpace=wrap;rounded=0;" parent="1" vertex="1">
          <mxGeometry x="700" y="295" width="60" height="30" as="geometry" />
        </mxCell>
        <mxCell id="T8wJNeYBnqiXYlnfQDk6-1" value="" style="endArrow=none;html=1;rounded=0;" parent="1" edge="1">
          <mxGeometry width="50" height="50" relative="1" as="geometry">
            <mxPoint x="30" y="520" as="sourcePoint" />
            <mxPoint x="800" y="520" as="targetPoint" />
          </mxGeometry>
        </mxCell>
        <mxCell id="DnzEfanS2YKpA3I867U5-1" value="&lt;p style=&quot;margin: 0px 0px 0px 23px; font-variant-numeric: normal; font-variant-east-asian: normal; font-variant-alternates: normal; font-kerning: auto; font-optical-sizing: auto; font-feature-settings: normal; font-variation-settings: normal; font-variant-position: normal; font-stretch: normal; line-height: normal; font-family: &amp;quot;Helvetica Neue&amp;quot;; text-align: start; text-wrap: wrap;&quot; class=&quot;p1&quot;&gt;&lt;br&gt;&lt;/p&gt;" style="text;html=1;align=center;verticalAlign=middle;resizable=0;points=[];autosize=1;strokeColor=none;fillColor=none;" vertex="1" parent="1">
          <mxGeometry x="365" y="555" width="50" height="30" as="geometry" />
        </mxCell>
        <mxCell id="DnzEfanS2YKpA3I867U5-3" value="&#xa;parse_arguments(argc, argv)&#xa;&#xa;&#xa;" style="text;html=1;align=center;verticalAlign=middle;whiteSpace=wrap;rounded=0;" vertex="1" parent="1">
          <mxGeometry x="300" y="555" width="240" height="30" as="geometry" />
        </mxCell>
      </root>
    </mxGraphModel>
  </diagram>
</mxfile>
